<?xml version="1.0" encoding="utf-8"?>
<!-- Generator: Adobe Illustrator 23.0.2, SVG Export Plug-In . SVG Version: 6.00 Build 0)  -->
<svg version="1.1" id="Capa_1" xmlns="http://www.w3.org/2000/svg" xmlns:xlink="http://www.w3.org/1999/xlink" x="0px" y="0px"
	 viewBox="0 0 60 60" style="enable-background:new 0 0 60 60;" xml:space="preserve">
<style type="text/css">
	.st0{fill:#FFFFFF;stroke:#000000;stroke-miterlimit:10;}
	.st1{fill:#DB9023;}
	.st2{fill:#FFFFFF;}
</style>
<path class="st0" d="M36,3c-1-1-10-0.9-10.9,0s-10.3,9.3-10.3,17v11.7V32v5.4V55v0.3c0,1.3,1,2.3,2.2,2.3h27.1c1.2,0,2.2-1,2.2-2.3
	V55V37.5v-5.4v-0.3V20C46.3,12.3,36.9,3.9,36,3z"/>
<path class="st0" d="M14.5,24c0,0-4.9,2.1-5.1,0s2.7-2.6,4.8-2.3C14.7,22.2,14.5,24,14.5,24z"/>
<path class="st0" d="M46.2,24c0,0,4.9,2.1,5.1,0s-2.7-2.6-4.8-2.3C46.1,22.2,46.2,24,46.2,24z"/>
<path d="M44.1,57.8H16.9c-1.2,0-2.1-0.9-2.1-2V23.3c0-1.2,0.9-2,2.1-2h27.3c1.2,0,2.1,0.9,2.1,2v32.5C46.2,56.8,45.3,57.8,44.1,57.8
	z"/>
<rect x="18.2" y="21.3" class="st1" width="3.7" height="33.4"/>
<rect x="38.8" y="21.3" class="st1" width="3.7" height="33.4"/>
<path class="st2" d="M42.9,55.7H17.7c0,0-0.1,0.4-0.1,0.9l0,0c0,0.5,1.9,0.9,4.3,0.9c5.7,0.2,11.3,0.2,16.8,0c2.4,0,4.3-0.4,4.3-0.9
	l0,0C43,56,42.9,55.7,42.9,55.7z"/>
<path class="st0" d="M42.5,21.8H18.7c0,0-0.1-1.8-0.1-4.1l0,0c0-2.2,1.8-4.1,4.1-4.1c5.4-0.8,10.7-0.8,15.8,0c2.2,0,4.1,1.8,4.1,4.1
	l0,0C42.6,19.9,42.5,21.8,42.5,21.8z"/>
</svg>
