<?xml version="1.0" encoding="utf-8"?>
<!-- Generator: Adobe Illustrator 23.0.2, SVG Export Plug-In . SVG Version: 6.00 Build 0)  -->
<svg version="1.1" id="Layer_1" xmlns="http://www.w3.org/2000/svg" xmlns:xlink="http://www.w3.org/1999/xlink" x="0px" y="0px"
	 viewBox="0 0 60 60" style="enable-background:new 0 0 60 60;" xml:space="preserve">
<style type="text/css">
	.st0{fill:url(#SVGID_1_);}
	.st1{fill:url(#SVGID_2_);}
	.st2{fill:url(#SVGID_3_);}
	.st3{fill:url(#SVGID_4_);}
	.st4{fill:url(#SVGID_5_);}
	.st5{fill:url(#SVGID_6_);}
	.st6{fill:url(#SVGID_7_);}
	.st7{fill:url(#SVGID_8_);}
	.st8{fill:url(#SVGID_9_);}
	.st9{fill:url(#SVGID_10_);}
	.st10{fill:#93091A;}
	.st11{fill:url(#SVGID_11_);}
	.st12{fill:url(#SVGID_12_);}
	.st13{fill:url(#SVGID_13_);}
	.st14{fill:url(#SVGID_14_);}
	.st15{fill:url(#SVGID_15_);}
	.st16{fill:url(#SVGID_16_);}
	.st17{fill:url(#SVGID_17_);}
	.st18{fill:url(#SVGID_18_);}
	.st19{fill:#595959;}
	.st20{fill:url(#SVGID_19_);}
	.st21{fill:url(#SVGID_20_);}
	.st22{fill:url(#SVGID_21_);}
	.st23{fill:url(#SVGID_22_);}
	.st24{fill:url(#SVGID_23_);}
	.st25{fill:url(#SVGID_24_);}
	.st26{fill:url(#SVGID_25_);}
	.st27{fill:url(#SVGID_26_);}
</style>
<g>
	
		<radialGradient id="SVGID_1_" cx="29.9927" cy="4011.033" r="15.0264" gradientTransform="matrix(1 0 0 -2.0828 0 8384.5752)" gradientUnits="userSpaceOnUse">
		<stop  offset="0" style="stop-color:#F7F7F7"/>
		<stop  offset="1" style="stop-color:#A8ABAA"/>
	</radialGradient>
	<path class="st0" d="M41.9,11.8c-0.3-2.4-0.7-3.6-1.5-4.6c-0.3,0-0.7,0-1-0.2L36.7,5c-0.3-0.2-0.5-0.5-0.5-0.9
		C36,4.1,35.9,4,35.8,4v2.6H24.2V4c-0.1,0-0.3,0.1-0.4,0.1c0,0.3-0.2,0.7-0.5,0.9l-2.8,2.1c-0.3,0.2-0.6,0.3-1,0.2
		c-0.8,1-1.2,2.2-1.5,4.6c-0.7,6.3,0.5,16.1,0.5,18.5c-0.1,12.9-0.3,20.8,0.6,23.5c0.1,0.5,0.6,1,1.1,1.3c0.1,0,0.3-0.1,0.4-0.1
		c1,0,1.5,0.7,2.6,0.5c0.7-0.1,1,0.5,1.1,0.9c0.7,0.1,1.3,0.2,1.9,0.2c0.1-0.1,0.3-0.2,0.4-0.2h6.5c0.2,0,0.3,0.1,0.4,0.2
		c0.5,0,1-0.1,1.4-0.1c0-0.4,0.3-1.1,1.1-1c1.1,0.2,1.6-0.5,2.6-0.5c0.3,0,0.5,0.1,0.7,0.2c0.7-0.4,1.2-0.9,1.4-1.4
		c0.9-2.7,0.8-10.6,0.6-23.5C41.4,27.9,42.7,18.1,41.9,11.8z"/>
	
		<linearGradient id="SVGID_2_" gradientUnits="userSpaceOnUse" x1="24.2435" y1="55.1105" x2="35.7464" y2="55.1105" gradientTransform="matrix(1 0 0 -1 0 60)">
		<stop  offset="0" style="stop-color:#525956"/>
		<stop  offset="1" style="stop-color:#2C2E2E"/>
	</linearGradient>
	<path class="st1" d="M35.8,6.6V4c-3.3-1-8.2-1-11.5,0v2.6H35.8z"/>
	
		<radialGradient id="SVGID_3_" cx="29.9951" cy="5856.5103" r="12.0142" gradientTransform="matrix(1 0 0 -3.8388 0 22511.7559)" gradientUnits="userSpaceOnUse">
		<stop  offset="0" style="stop-color:#FFFFFF"/>
		<stop  offset="1" style="stop-color:#D2D6D5"/>
	</radialGradient>
	<path class="st2" d="M41.2,12.2c-0.4-3.9-1.4-4.6-3.6-6.4c-3-2.5-12.3-2.5-15.3,0c-2.2,1.8-3.1,2.5-3.6,6.4
		c-0.7,6,0.5,15.5,0.4,17.8c-0.1,12.4-0.2,20,0.5,22.6c0.9,3,10.2,2.8,10.2,2.8s9.3,0.1,10.2-2.8C41,50,40.9,42.5,40.7,30
		C40.7,27.7,41.9,18.2,41.2,12.2z"/>
	
		<linearGradient id="SVGID_4_" gradientUnits="userSpaceOnUse" x1="21.5786" y1="33.9763" x2="38.4225" y2="33.9763" gradientTransform="matrix(1 0 0 -1 0 60)">
		<stop  offset="0" style="stop-color:#000000"/>
		<stop  offset="1" style="stop-color:#1B1C1C"/>
	</linearGradient>
	<path class="st3" d="M25.4,25.2c-1.9,0.3-3.3,0.8-3.9,1l0.1,0.9c0,0,1.5-0.8,3.9-1.1c2-0.3,6.7-0.3,8.8,0c2.4,0.3,3.9,1.1,3.9,1.1
		l0.1-0.9c-0.5-0.2-1.9-0.8-3.9-1C32.4,24.9,27.6,24.9,25.4,25.2z"/>
	
		<linearGradient id="SVGID_5_" gradientUnits="userSpaceOnUse" x1="21.8014" y1="11.2141" x2="38.1668" y2="11.2141" gradientTransform="matrix(1 0 0 -1 0 60)">
		<stop  offset="0" style="stop-color:#000000"/>
		<stop  offset="1" style="stop-color:#1B1C1C"/>
	</linearGradient>
	<path class="st4" d="M37.8,45.7c0-0.3-0.1-0.6-0.2-0.9c0,0-0.1,0-0.3,0.1C36.4,45.3,34.1,46,30,46c-3.8,0-6.4-0.8-7.2-1.1
		c-0.2-0.1-0.3-0.1-0.3-0.1c-0.1,0.3-0.1,0.6-0.2,0.9c-0.6,2.9-0.3,5.7-0.3,5.7s1.6,0.7,4,1.2c1.8,0.3,6.4,0.3,8.2,0
		c2.4-0.4,4-1.2,4-1.2S38.4,48.6,37.8,45.7z M37.5,50.7c0,0-1.5,0.7-3.7,1.2c-1.7,0.3-5.9,0.3-7.6,0c-2.2-0.4-3.7-1.2-3.7-1.2
		s-0.2-2.3,0.1-4.9c1.4,0.4,4,0.9,7.4,0.9c3.7,0,6.1-0.5,7.4-0.8C37.7,48.4,37.5,50.7,37.5,50.7z"/>
	
		<linearGradient id="SVGID_6_" gradientUnits="userSpaceOnUse" x1="22.3725" y1="11.0693" x2="37.5909" y2="11.0693" gradientTransform="matrix(1 0 0 -1 0 60)">
		<stop  offset="0" style="stop-color:#363B39"/>
		<stop  offset="1" style="stop-color:#1B1C1C"/>
	</linearGradient>
	<path class="st5" d="M22.6,45.8c-0.4,2.6-0.1,4.9-0.1,4.9s1.5,0.7,3.7,1.2c1.7,0.3,5.9,0.3,7.6,0c2.2-0.4,3.7-1.2,3.7-1.2
		s0.2-2.3-0.1-4.8c-1.3,0.3-3.7,0.8-7.4,0.8C26.5,46.7,24,46.2,22.6,45.8z"/>
	<g>
		
			<linearGradient id="SVGID_7_" gradientUnits="userSpaceOnUse" x1="19.7167" y1="19.6135" x2="21.6873" y2="19.6135" gradientTransform="matrix(1 0 0 -1 0 60)">
			<stop  offset="0" style="stop-color:#363B39"/>
			<stop  offset="1" style="stop-color:#1B1C1C"/>
		</linearGradient>
		<path class="st6" d="M19.8,35l1.7,0.7l0.2,6.1c0,0-0.1,0.8-0.8,2c-0.7,1.4-1.1,1.8-1.1,1.8S19.6,37.3,19.8,35z"/>
		
			<linearGradient id="SVGID_8_" gradientUnits="userSpaceOnUse" x1="38.3032" y1="19.6135" x2="40.2734" y2="19.6135" gradientTransform="matrix(1 0 0 -1 0 60)">
			<stop  offset="0" style="stop-color:#363B39"/>
			<stop  offset="1" style="stop-color:#1B1C1C"/>
		</linearGradient>
		<path class="st7" d="M40.2,35l-1.7,0.7l-0.2,6.1c0,0,0.1,0.8,0.8,2c0.7,1.4,1.1,1.8,1.1,1.8S40.4,37.3,40.2,35z"/>
	</g>
	<g>
		
			<radialGradient id="SVGID_9_" cx="21.6943" cy="46.0367" r="1.8549" gradientTransform="matrix(1 0 0 -1.0473 0 53.8978)" gradientUnits="userSpaceOnUse">
			<stop  offset="0" style="stop-color:#FFFFFF"/>
			<stop  offset="1" style="stop-color:#D2D6D5"/>
		</radialGradient>
		<path class="st8" d="M20.5,7.1L23.3,5c0.3-0.2,0.5-0.5,0.5-0.9c-0.8,0.3-1.5,0.6-2,1.1c-1,0.8-1.7,1.4-2.3,2.1
			C19.9,7.3,20.2,7.2,20.5,7.1z"/>
		
			<radialGradient id="SVGID_10_" cx="38.2463" cy="46.0275" r="1.8792" gradientTransform="matrix(1 0 0 -1.0473 0 53.8978)" gradientUnits="userSpaceOnUse">
			<stop  offset="0" style="stop-color:#FFFFFF"/>
			<stop  offset="1" style="stop-color:#D2D6D5"/>
		</radialGradient>
		<path class="st9" d="M36.7,5l2.8,2.1c0.3,0.2,0.6,0.3,1,0.2c-0.6-0.7-1.3-1.3-2.3-2.1c-0.5-0.4-1.3-0.8-2.1-1
			C36.1,4.5,36.4,4.8,36.7,5z"/>
	</g>
	<path class="st10" d="M23.3,55.5c-1.1,0.2-1.6-0.5-2.6-0.5c-0.2,0-0.3,0-0.4,0.1c1,0.6,2.6,1,4.1,1.3C24.3,56,24,55.4,23.3,55.5z"
		/>
	<path class="st10" d="M36.2,55.5c-0.8-0.1-1,0.5-1.1,1c1.6-0.2,3.2-0.6,4.3-1.2c-0.1-0.1-0.3-0.2-0.7-0.2
		C37.8,55.1,37.3,55.7,36.2,55.5z"/>
	
		<linearGradient id="SVGID_11_" gradientUnits="userSpaceOnUse" x1="24.5764" y1="33.8505" x2="45.5975" y2="-0.6531" gradientTransform="matrix(1 0 0 -1 0 60)">
		<stop  offset="0" style="stop-color:#E0E0E0"/>
		<stop  offset="1" style="stop-color:#4F4F4F"/>
	</linearGradient>
	<path class="st11" d="M30,26.5c-6-0.1-8,1-8,1s0.1,14.6,0.5,16c0.3,1,4.1,1.4,6.5,1.6h2c2.4-0.2,6.2-0.6,6.5-1.6
		c0.5-1.4,0.5-16,0.5-16S36,26.3,30,26.5z"/>
	
		<linearGradient id="SVGID_12_" gradientUnits="userSpaceOnUse" x1="27.1723" y1="11.4258" x2="37.1876" y2="-5.0131" gradientTransform="matrix(1 0 0 -1 0 60)">
		<stop  offset="0" style="stop-color:#F7F7F7"/>
		<stop  offset="1" style="stop-color:#DBDBDB"/>
	</linearGradient>
	<path class="st12" d="M31,55c5.8-0.2,8.4-1.8,8.4-1.8l-1.2-1.4c-3.6,2-8.3,1.6-8.3,1.6l0,0c0,0-4.7,0.4-8.3-1.6l-1.2,1.4
		c0,0,2.6,1.6,8.4,1.8c0.3,0,1.1,0,1.1,0l0,0C30.4,55.1,30.7,55,31,55z"/>
	
		<linearGradient id="SVGID_13_" gradientUnits="userSpaceOnUse" x1="17.3351" y1="59.4531" x2="22.4976" y2="44.5876" gradientTransform="matrix(1 0 0 -1 0 60)">
		<stop  offset="0" style="stop-color:#F7F7F7"/>
		<stop  offset="1" style="stop-color:#DBDBDB"/>
	</linearGradient>
	<path class="st13" d="M23.3,5.5c0,0-3.6,1.8-4,5.9c-0.4,4.1-0.3,6.2-0.3,6.2S20.2,7.6,23.3,5.5z"/>
	
		<linearGradient id="SVGID_14_" gradientUnits="userSpaceOnUse" x1="372.044" y1="59.4587" x2="377.2064" y2="44.5933" gradientTransform="matrix(-1 0 0 -1 414.7031 60)">
		<stop  offset="0" style="stop-color:#F7F7F7"/>
		<stop  offset="1" style="stop-color:#DBDBDB"/>
	</linearGradient>
	<path class="st14" d="M36.7,5.5c0,0,3.6,1.8,4,5.9c0.4,4.1,0.3,6.2,0.3,6.2S39.8,7.6,36.7,5.5z"/>
	<g>
		<g>
			<linearGradient id="SVGID_15_" gradientUnits="userSpaceOnUse" x1="18.6626" y1="30.6581" x2="29.0693" y2="7.8138">
				<stop  offset="0" style="stop-color:#363B39"/>
				<stop  offset="1" style="stop-color:#1B1C1C"/>
			</linearGradient>
			<path class="st15" d="M19.6,18.9c0,0,0,0.2,0,0.5c-0.2,0.1-0.9,0.3-0.9,0.9c0,0.7,0.6,1.8,0.9,1.7c0,0.7,0,1.4,0.1,2.3
				c0.1,2,0.3,4.8,0.3,6.6c0,1.7-0.1,2.8-0.1,3.4l1.6,0.6l-0.3-7.3L19.6,18.9z"/>
			<linearGradient id="SVGID_16_" gradientUnits="userSpaceOnUse" x1="38.1181" y1="31.2873" x2="49.5398" y2="6.2147">
				<stop  offset="0" style="stop-color:#363B39"/>
				<stop  offset="1" style="stop-color:#1B1C1C"/>
			</linearGradient>
			<path class="st16" d="M40.4,19.4c0-0.4,0-0.6,0-0.6l-1.5,8.7l-0.3,7.3l1.6-0.6c0-0.6-0.1-1.7-0.1-3.4c0-1.8,0.2-4.6,0.3-6.6
				c0-0.8,0.1-1.6,0.1-2.2c0.3,0.1,0.9-1.1,0.9-1.7C41.2,19.7,40.6,19.5,40.4,19.4z"/>
		</g>
		
			<linearGradient id="SVGID_17_" gradientUnits="userSpaceOnUse" x1="16.3484" y1="39.1099" x2="19.098" y2="39.1099" gradientTransform="matrix(1 0 0 -1 0 60)">
			<stop  offset="0" style="stop-color:#D2D6D5"/>
			<stop  offset="1" style="stop-color:#FFFFFF"/>
		</linearGradient>
		<path class="st17" d="M18.5,20.2c0,0-1.9,0.6-2.1,0.9c-0.1,0.1-0.1,0.3,0,0.5l2.7-0.8C19,20.5,18.9,20.1,18.5,20.2z"/>
		
			<linearGradient id="SVGID_18_" gradientUnits="userSpaceOnUse" x1="16.3483" y1="38.7639" x2="19.0989" y2="38.7639" gradientTransform="matrix(1 0 0 -1 0 60)">
			<stop  offset="0" style="stop-color:#363B39"/>
			<stop  offset="1" style="stop-color:#1B1C1C"/>
		</linearGradient>
		<path class="st18" d="M16.4,21.6c0,0.1,0,0.1,0,0.1l2.7-0.7c0,0,0-0.1,0-0.3L16.4,21.6z"/>
	</g>
	<path class="st19" d="M18.6,30c-0.1,0-0.2,0.1-0.2,0.2v2.1c0,0.1,0.1,0.2,0.2,0.2V30z"/>
	<path class="st19" d="M18.4,40.3c-0.1,0-0.2,0.1-0.2,0.2v2.1c0,0.1,0.1,0.2,0.2,0.2V40.3z"/>
	<path class="st19" d="M41.4,30c0.1,0,0.2,0.1,0.2,0.2v2.1c0,0.1-0.1,0.2-0.2,0.2V30z"/>
	<path class="st19" d="M41.5,40.3c0.1,0,0.2,0.1,0.2,0.2v2.1c0,0.1-0.1,0.2-0.2,0.2V40.3z"/>
	
		<linearGradient id="SVGID_19_" gradientUnits="userSpaceOnUse" x1="26.2925" y1="3.4029" x2="33.6895" y2="3.4029" gradientTransform="matrix(1 0 0 -1 0 60)">
		<stop  offset="0" style="stop-color:#363B39"/>
		<stop  offset="1" style="stop-color:#1B1C1C"/>
	</linearGradient>
	<path class="st20" d="M33.3,56.4h-6.5c-0.2,0-0.3,0.1-0.4,0.2c2,0.2,3.7,0.1,3.7,0.1s1.6,0,3.7-0.1C33.6,56.5,33.4,56.4,33.3,56.4z
		"/>
	
		<radialGradient id="SVGID_20_" cx="30.8919" cy="11.0211" r="5.2379" gradientTransform="matrix(1 0 0 -1 0 60)" gradientUnits="userSpaceOnUse">
		<stop  offset="0" style="stop-color:#363B39"/>
		<stop  offset="1" style="stop-color:#1B1C1C"/>
	</radialGradient>
	<path class="st21" d="M37.4,45.8c-1.3,0.3-3.7,0.8-7.4,0.8c-0.8,0-1.4,0-2.1,0c-2.1,1-3.4,4-3.7,4.7c0.6,0.2,1.3,0.4,2,0.5
		c1.7,0.3,5.9,0.3,7.6,0c2.2-0.4,3.7-1.2,3.7-1.2S37.7,48.4,37.4,45.8z"/>
	<linearGradient id="SVGID_21_" gradientUnits="userSpaceOnUse" x1="29.7744" y1="3.857" x2="29.7744" y2="17.0367">
		<stop  offset="0" style="stop-color:#666666"/>
		<stop  offset="0.5843" style="stop-color:#E0E0E0"/>
	</linearGradient>
	<path class="st22" d="M36.5,17c0,0-1-12-0.8-12.2c0,0-4.8-2-11.4-0.1L23,17"/>
	<g>
		
			<linearGradient id="SVGID_22_" gradientUnits="userSpaceOnUse" x1="40.8825" y1="39.0947" x2="43.6335" y2="39.0947" gradientTransform="matrix(1 0 0 -1 0 60)">
			<stop  offset="0" style="stop-color:#FFFFFF"/>
			<stop  offset="1" style="stop-color:#D2D6D5"/>
		</linearGradient>
		<path class="st23" d="M43.5,21.1c-0.2-0.3-2.1-0.9-2.1-0.9c-0.4-0.1-0.5,0.2-0.5,0.5l2.7,0.8C43.6,21.5,43.7,21.3,43.5,21.1z"/>
		
			<linearGradient id="SVGID_23_" gradientUnits="userSpaceOnUse" x1="40.8829" y1="38.6915" x2="43.6336" y2="38.6915" gradientTransform="matrix(1 0 0 -1 0 60)">
			<stop  offset="0" style="stop-color:#363B39"/>
			<stop  offset="1" style="stop-color:#1B1C1C"/>
		</linearGradient>
		<path class="st24" d="M40.9,20.8c0,0.2,0,0.3,0,0.3l2.7,0.7c0,0,0-0.1,0-0.2L40.9,20.8z"/>
	</g>
	
		<linearGradient id="SVGID_24_" gradientUnits="userSpaceOnUse" x1="20.2429" y1="42.3998" x2="39.7491" y2="42.3998" gradientTransform="matrix(1 0 0 -1 0 60)">
		<stop  offset="0" style="stop-color:#000000"/>
		<stop  offset="1" style="stop-color:#1B1C1C"/>
	</linearGradient>
	<path class="st25" d="M21,18.7c0.8-0.3,2.1-0.9,4.1-1.3c2.9-0.6,6.8-0.6,9.8,0c2.1,0.4,3.4,1,4.1,1.3c0.3,0.1,0.5,0.2,0.6,0.4v0
		c0,0,0.1-0.6,0-0.8c-0.1-0.1-0.3-0.3-0.7-0.4c-0.8-0.3-2.1-0.9-4.1-1.3c-2.9-0.6-6.8-0.6-9.8,0c-2.1,0.4-3.4,1-4.1,1.3
		c-0.4,0.2-0.6,0.3-0.7,0.4c-0.1,0.1,0,0.8,0,0.8v0C20.4,19,20.7,18.9,21,18.7z"/>
	
		<linearGradient id="SVGID_25_" gradientUnits="userSpaceOnUse" x1="20.3275" y1="38.4202" x2="39.6627" y2="38.4202" gradientTransform="matrix(1 0 0 -1 0 60)">
		<stop  offset="9.868965e-02" style="stop-color:#363B39"/>
		<stop  offset="0.6111" style="stop-color:#1B1C1C"/>
	</linearGradient>
	<path class="st26" d="M25.4,25.2c2.1-0.3,7-0.3,9.2,0c1.9,0.3,3.3,0.8,3.9,1l1.3-7.1c-0.1-0.1-0.3-0.2-0.6-0.4
		c-0.8-0.3-2.1-0.9-4.1-1.3c-2.9-0.6-6.8-0.6-9.8,0c-2.1,0.4-3.4,1-4.1,1.3c-0.3,0.1-0.5,0.2-0.6,0.4l1.3,7.1
		C22.1,26,23.5,25.5,25.4,25.2z"/>
	
		<linearGradient id="SVGID_26_" gradientUnits="userSpaceOnUse" x1="29.9417" y1="40.3438" x2="35.356" y2="36.4939" gradientTransform="matrix(1 0 0 -1 0 60)">
		<stop  offset="0.296" style="stop-color:#363B39"/>
		<stop  offset="1" style="stop-color:#000000"/>
	</linearGradient>
	<path class="st27" d="M39,18.7c-0.8-0.3-2.1-0.9-4.1-1.3c-0.7-0.1-1.5-0.3-2.3-0.3c-2.1,2.2-4.5,6.3-5.5,8c2.4-0.1,5.8-0.1,7.5,0.1
		c1.9,0.3,3.3,0.8,3.9,1l1.3-7.1C39.6,19,39.3,18.9,39,18.7z"/>
</g>
</svg>
